<?xml version="1.0" encoding="UTF-8"?>
<svg id="Layer_1" data-name="Layer 1" xmlns="http://www.w3.org/2000/svg" viewBox="0 0 389.05 381.33">
  <defs>
    <style>
      .cls-1 {
        fill: #325377;
      }

      .cls-2 {
        fill: #e2c281;
      }

      .cls-3 {
        fill: #e5a413;
      }
    </style>
  </defs>
  <path class="cls-1" d="M211.08,164c24-30,27-83,25-102s-11-22-15-22-16-1-24-5-7-15-25-16-41,17-48,23c-9,5-25,9-30,21s8,35,10,40,20,30,26,39c-15-12-37-34-45-40s-29-11-41,10C16.08,117,1.08,131,.08,139c-1,8,7,22,15,30-6,14-10,22-8,33s13,23,37,25c24,2,75-7,87-11-25,10-60,30-69,37s-33,39,8,56c0,20,13,38,38,32,8,24,22,34,46,22,16,19,87,53,77-81,35,74,57,67,60,66s15-5,22-3,37,9,54-22c-6-17-8-16-6-26s6-15,6-29-16-27-44-34-41-10-55-19c26,6,132,25,112-45,23-18-3-45-25-47,1-21-40-66-96,33,23-12,42-12,42-12,0,0-36,14-47,23,20-2,48-14,70-8-19,7-69,15-79,24,16,5,47-6,66,5-30-1-73,1-85,18,14,9,60,20,67,44-26-20-55-30-69-32,6,9,35,31,38,46-24-19-25-32-54-44-11,11-13,40-14,60-7-21-5-42-3-59-13,6-38,50-43,64-1-19,19-58,33-67-19,0-46,26-57,38,0-22,51-48,59-52-15-7-81-31-89-41,21,2,53,21,77,21-7-15-54-32-68-36,27-6,68,20,77,30,2-16-17-39-28-53,20,12,32,33,37,41,0-18-17-52-30-68,23,14,36,44,38,61,6-19,2-47-11-73,24,17,22,48,25,78h0Z"/>
  <path class="cls-2" d="M293.08,34s-39,110-90,158c-12,12-7,28,15,8s76-127,75-166h0Z"/>
  <path class="cls-3" d="M314.08,53c0,4.97-4.03,9-9,9s-7-4.03-7-9,3.03-6,8-6,8,1.03,8,6Z"/>
  <ellipse class="cls-3" cx="301.08" cy="9" rx="8" ry="9"/>
  <ellipse class="cls-3" cx="262.58" cy="63.5" rx="8.5" ry="7.5"/>
  <circle class="cls-3" cx="302.58" cy="75.5" r="7.5"/>
  <circle class="cls-3" cx="272.08" cy="44" r="8"/>
  <ellipse class="cls-3" cx="281.08" cy="23" rx="9" ry="7"/>
  <circle class="cls-3" cx="310.08" cy="31" r="8"/>
</svg>